<svg width="122" height="155" viewBox="0 0 122 155" fill="none" xmlns="http://www.w3.org/2000/svg">
<path d="M60.6387 0.342419C57.3403 0.444847 53.3811 1.13218 47.8245 2.44397C45.2355 3.05512 36.9689 4.88762 34.0084 5.50798C31.9932 5.93038 27.6409 6.5903 25.522 6.79722C24.5474 6.89324 23.7205 7.12904 23.6799 7.32706C23.5243 8.09004 34.8008 23.629 36.4139 24.8723C38.5882 26.5482 44.8095 28.9535 49.3804 29.8877C54.0418 30.8397 61.3708 30.7758 66.3888 29.7374C68.6008 29.2797 70.6394 28.7909 70.9227 28.6514C71.9103 28.1639 77.0292 26.6794 77.4416 26.7617C77.6696 26.8076 77.9742 27.3622 78.1212 27.9891C78.401 29.1806 78.2423 29.5734 75.4922 34.8324C75.3712 35.0525 75.2728 35.2872 75.1615 35.5122C73.3478 35.3756 71.5788 35.6694 70.279 36.9339C67.9263 39.2212 68.2653 43.1325 68.0524 46.1347C67.6266 52.1242 67.055 58.2025 66.2638 64.1568C65.2567 71.7215 64.5112 79.6521 64.5112 87.2826C68.5706 87.0633 72.279 82.735 75.2243 80.2274C82.3744 74.1395 89.7264 68.2365 97.0526 62.3555C100.181 59.8439 105.016 57.058 104.01 52.4041C103.425 49.6992 100.732 47.7501 98.6443 46.1347C93.7346 42.336 88.2497 39.5326 82.4317 37.4372C82.4392 37.0472 82.4858 36.6146 82.5874 36.0596C83.6742 30.7505 91.3224 21.8535 99.882 15.936C104.462 12.7695 105.563 11.5939 105.31 10.1082C105.154 9.14208 102.55 8.88205 99.7836 9.56077C97.1325 10.211 89.6416 15.405 85.3865 19.5387C83.4069 21.4616 81.5659 23.002 81.2997 22.9559C81.0328 22.91 80.3857 20.0607 79.86 16.6248C78.9545 10.7202 78.787 10.1996 76.7301 7.18551C74.3169 3.65076 72.8226 2.63698 68.0023 1.25172C67.3518 1.06447 66.7114 0.906264 66.0618 0.775029C64.3573 0.432218 62.6178 0.281283 60.6387 0.342419Z" fill="#F4F3FF"/>
<path d="M63.8289 101.851C62.4064 102.044 62.5605 104.318 62.5241 105.309C62.3858 108.91 61.9861 112.713 61.5063 116.282C60.4196 124.353 60.3538 132.531 59.1865 140.58C58.7262 143.754 57.5514 149.081 59.4114 151.928C61.3199 154.846 65.3861 154.522 68.4807 154.23C75.9733 153.523 83.2352 151.083 89.9125 147.729C92.7776 146.29 96.3163 144.258 96.1521 140.58C96.031 137.867 93.537 135.445 91.8351 133.526C88.3238 129.565 85.0225 125.422 81.6098 121.377C77.3201 116.293 73.1173 111.128 68.7699 106.093C67.7348 104.894 65.7188 101.595 63.8289 101.851Z" fill="#F4F3FF"/>
<path d="M56.1706 101.306C52.9611 102.201 49.5842 106.199 47.05 108.281L26.8089 124.934C23.9048 127.323 19.0496 129.948 18.3032 133.916C17.6268 137.519 21.0839 140.18 23.6339 142.095C29.2491 146.313 35.5069 149.709 42.2873 151.713C44.601 152.396 47.412 153.541 49.828 152.804C54.5371 151.368 53.8574 146.724 54.3622 142.93C55.693 132.923 56.3294 122.799 57.3013 112.754C57.4861 110.837 59.4096 100.401 56.1706 101.306Z" fill="#F4F3FF"/>
<path d="M68.0825 97.4712C68.3494 101.099 72.0975 104.152 74.2997 106.877C80.3993 114.422 86.766 121.894 93.1379 129.215C95.552 131.988 98.6214 137.271 103.008 136.451C106.141 135.866 108.007 133.142 109.797 130.782C113.963 125.288 117.209 119.322 119.27 112.755C120.246 109.645 121.518 105.669 118.799 103.047C116.57 100.897 112.267 101.123 109.359 100.983C103.316 100.693 97.1008 99.985 91.102 99.205C83.5961 98.229 75.6545 97.4712 68.0825 97.4712Z" fill="#F4F3FF"/>
<path d="M3.7885 91.8486C-0.689759 93.2373 -0.104828 97.7812 0.21663 101.39C0.891962 108.965 3.49676 116.251 7.05214 122.944C8.722 126.087 11.2397 129.384 15.2982 128.177C18.9885 127.079 22.3313 123.218 25.2202 120.824C31.817 115.357 38.4509 109.943 45.0643 104.494C46.5059 103.306 53.9892 98.6128 52.9321 96.4969C51.9748 94.5804 43.5331 94.9044 41.4923 94.728C32.4983 93.9502 23.5124 92.9939 14.5044 92.3418C11.172 92.1006 7.06522 90.8325 3.7885 91.8486Z" fill="#F4F3FF"/>
<path d="M105.391 61.3005C102.148 62.3831 99.2928 65.8218 96.6593 67.9031C89.8152 73.3123 83.163 78.9716 76.4183 84.5068C74.8454 85.7973 67.46 90.3522 68.2212 92.6453C68.943 94.8178 77.616 94.3824 79.5935 94.616C88.8473 95.7089 98.4644 96.845 107.772 97.085C110.936 97.1671 114.65 98.5818 117.694 97.3585C121.787 95.7137 121.498 91.2754 120.901 87.6737C119.679 80.307 117.879 73.1162 114.177 66.5114C112.297 63.1568 109.813 59.8243 105.391 61.3005Z" fill="#F4F3FF"/>
<path d="M18.8711 53.05C16.2911 53.8096 14.5661 56.318 12.9551 58.2819C8.50038 63.713 5.44236 70.0934 3.2612 76.7009C2.21308 79.8763 0.808462 83.6496 3.52805 86.4102C6.04645 88.9672 12.2889 88.6847 15.6964 88.8496C24.5346 89.2771 33.4891 90.3358 42.2875 91.266C45.1622 91.5697 50.6379 93.0498 53.3412 92.0506C56.6452 90.8294 49.0917 83.5455 47.9417 82.1874C41.4413 74.5117 34.9763 66.8041 28.5497 59.0656C26.2055 56.2427 23.2131 51.7715 18.8711 53.05Z" fill="#F4F3FF"/>
<path d="M55.3841 34.1501C47.4837 35.1768 40.2968 36.9227 33.1585 40.5449C30.1935 42.0495 26.2931 43.8209 26.4689 47.7C26.5899 50.3795 28.6644 52.449 30.3287 54.3622C33.4715 57.975 36.5187 61.6762 39.6068 65.3352C44.2229 70.8051 48.6894 76.4029 53.3996 81.7948C54.4304 82.9762 56.6759 86.699 58.5159 86.483C59.9055 86.3207 59.7167 84.3288 59.8171 83.3624C60.1683 79.968 60.4212 76.5578 60.8275 73.1731C61.7794 65.2334 62.1859 57.2239 62.9923 49.2676C63.3554 45.6843 64.6085 41.0419 63.4591 37.5166C62.3584 34.137 58.4079 33.7571 55.3841 34.1501Z" fill="#F4F3FF"/>
</svg>
