<svg width="126" height="38" viewBox="0 0 126 38" fill="none" xmlns="http://www.w3.org/2000/svg">
<path id="path61254-0-1-6" d="M66.402 12.2349C64.6704 12.4546 63.0951 12.8281 61.5306 13.603C60.8807 13.9249 60.0258 14.3039 60.0643 15.1337C60.0909 15.707 60.5455 16.1497 60.9103 16.559C61.5992 17.332 62.2671 18.1238 62.9439 18.9066C63.9557 20.0768 64.9346 21.2743 65.967 22.4279C66.193 22.6806 66.6851 23.4771 67.0884 23.4309C67.393 23.3961 67.3516 22.97 67.3736 22.7632C67.4506 22.0371 67.506 21.3075 67.5951 20.5834C67.8037 18.8848 67.8928 17.1713 68.0695 15.4691C68.1491 14.7025 68.4238 13.7093 68.1719 12.9551C67.9306 12.2321 67.0647 12.1508 66.402 12.2349ZM58.3991 16.2781C57.8336 16.4407 57.4555 16.9773 57.1024 17.3974C56.126 18.5594 55.4557 19.9243 54.9777 21.3379C54.748 22.0173 54.4401 22.8245 55.0362 23.4151C55.5882 23.9622 56.9564 23.9017 57.7032 23.937C59.6404 24.0285 61.603 24.255 63.5315 24.4539C64.1616 24.5189 65.3617 24.8356 65.9542 24.6218C66.6784 24.3605 65.0228 22.8023 64.7708 22.5117C63.346 20.8696 61.929 19.2206 60.5204 17.5651C60.0066 16.9612 59.3507 16.0046 58.3991 16.2781ZM77.3626 18.0432C76.6517 18.2749 76.026 19.0105 75.4488 19.4558C73.9487 20.613 72.4906 21.8237 71.0123 23.0079C70.6676 23.284 69.0489 24.2585 69.2157 24.7491C69.3739 25.2138 71.2749 25.1207 71.7083 25.1707C73.7365 25.4045 75.8444 25.6475 77.8845 25.6989C78.5779 25.7164 79.3919 26.0191 80.0591 25.7574C80.9564 25.4055 80.8929 24.456 80.7621 23.6854C80.4943 22.1094 80.0998 20.5711 79.2884 19.1581C78.8763 18.4404 78.3317 17.7274 77.3626 18.0432ZM55.0934 24.5786C54.1119 24.8757 54.2401 25.8478 54.3105 26.6199C54.4585 28.2404 55.0295 29.7991 55.8087 31.2311C56.1747 31.9034 56.7266 32.6087 57.6161 32.3505C58.425 32.1156 59.1576 31.2897 59.7908 30.7775C61.2367 29.6078 62.6907 28.4495 64.1403 27.2839C64.4562 27.0298 66.0964 26.0257 65.8647 25.573C65.6549 25.163 63.8046 25.2323 63.3573 25.1946C61.386 25.0282 59.4165 24.8236 57.4421 24.6841C56.7117 24.6325 55.8116 24.3612 55.0934 24.5786ZM69.1856 25.7815C69.2441 26.5576 70.0656 27.2108 70.5483 27.7936C71.8852 29.4079 73.2807 31.0064 74.6773 32.5725C75.2064 33.166 75.8792 34.296 76.8406 34.1208C77.5272 33.9956 77.9364 33.4127 78.3285 32.9079C79.2418 31.7325 79.9533 30.4562 80.4049 29.0513C80.6188 28.3859 80.8976 27.5353 80.3017 26.9743C79.8131 26.5144 78.8701 26.5627 78.2325 26.5328C76.9081 26.4707 75.5459 26.3193 74.231 26.1524C72.5859 25.9436 70.8452 25.7815 69.1856 25.7815ZM66.5743 26.602C65.8708 26.7936 65.1307 27.6488 64.5752 28.0943L60.1388 31.657C59.5023 32.1681 58.4381 32.7297 58.2745 33.5786C58.1262 34.3492 58.884 34.9186 59.4429 35.3284C60.6736 36.2308 62.0452 36.9572 63.5313 37.3859C64.0385 37.5321 64.6546 37.777 65.1841 37.6194C66.2163 37.3121 66.0673 36.3187 66.1779 35.507C66.4696 33.3662 66.6091 31.2002 66.8221 29.0513C66.8626 28.6412 67.2842 26.4085 66.5743 26.602ZM68.253 26.7185C67.9412 26.7596 67.975 27.2462 67.967 27.4583C67.9367 28.2285 67.8491 29.0423 67.7439 29.8058C67.5057 31.5324 67.4913 33.282 67.2355 35.0039C67.1346 35.6831 66.8771 36.8226 67.2848 37.4317C67.7031 38.056 68.5943 37.9866 69.2726 37.9241C70.9148 37.7729 72.5065 37.2509 73.97 36.5335C74.598 36.2257 75.3736 35.7908 75.3376 35.0039C75.3111 34.4236 74.7644 33.9055 74.3914 33.4948C73.6218 32.6475 72.8982 31.761 72.1502 30.8957C71.21 29.8081 70.2888 28.703 69.336 27.626C69.1091 27.3695 68.6672 26.6637 68.253 26.7185ZM67.5538 5.0021C66.8309 5.02401 65.9631 5.17105 64.7452 5.4517C64.1777 5.58244 62.3659 5.97448 61.717 6.1072C61.2753 6.19757 60.3214 6.33875 59.8569 6.38302C59.6433 6.40356 59.4621 6.45401 59.4532 6.49637C59.4191 6.6596 61.8907 9.98395 62.2442 10.2499C62.7208 10.6085 64.0844 11.1231 65.0862 11.3229C66.1079 11.5266 67.7143 11.5129 68.8141 11.2908C69.299 11.1929 69.7458 11.0883 69.8079 11.0584C70.0243 10.9541 71.1463 10.6365 71.2367 10.6542C71.2867 10.664 71.3534 10.7826 71.3857 10.9167C71.447 11.1716 71.4122 11.2557 70.8094 12.3808C70.7829 12.4279 70.7613 12.4781 70.7369 12.5262C70.3394 12.497 69.9517 12.5598 69.6668 12.8304C69.1511 13.3197 69.2254 14.1565 69.1788 14.7988C69.0854 16.0801 68.9601 17.3805 68.7867 18.6544C68.566 20.2727 68.4026 21.9694 68.4026 23.6018C69.2924 23.5549 70.1052 22.6289 70.7507 22.0924C72.3179 20.79 73.9293 19.5271 75.535 18.269C76.2208 17.7317 77.2804 17.1357 77.0599 16.14C76.9318 15.5613 76.3415 15.1444 75.8839 14.7988C74.8078 13.9861 73.6056 13.3863 72.3304 12.938C72.3321 12.8546 72.3423 12.7621 72.3645 12.6433C72.6027 11.5075 74.2791 9.60411 76.1552 8.33814C77.1591 7.6607 77.4005 7.40919 77.3449 7.09136C77.3108 6.88467 76.7401 6.82904 76.1336 6.97424C75.5526 7.11334 73.9107 8.22455 72.9781 9.10889C72.5442 9.52027 72.1407 9.84982 72.0823 9.83995C72.0238 9.83014 71.882 9.22056 71.7668 8.4855C71.5683 7.22229 71.5316 7.1109 71.0808 6.46609C70.5518 5.70987 70.2243 5.49299 69.1678 5.19663C69.0252 5.15657 68.8848 5.12272 68.7425 5.09465C68.3689 5.02131 67.9876 4.98902 67.5538 5.0021ZM114.024 38C111.766 38 109.754 37.4639 107.987 36.3916C106.252 35.3193 104.894 33.837 103.913 31.9448C102.931 30.021 102.44 27.8291 102.44 25.3692C102.44 22.8462 102.98 20.6386 104.06 18.7463C105.14 16.854 106.612 15.3875 108.478 14.3468C110.375 13.2745 112.519 12.7384 114.907 12.7384C116.903 12.7384 118.67 13.1168 120.208 13.8737C121.779 14.6306 123.022 15.7029 123.939 17.0906C124.888 18.4467 125.427 20.0236 125.558 21.8212L125.607 22.5308H109.116V22.7673C109.116 26.1103 109.884 28.791 111.422 30.8095C112.96 32.7963 115.022 33.7897 117.607 33.7897C119.178 33.7897 120.666 33.427 122.073 32.7017C123.513 31.9448 124.675 30.9356 125.558 29.6741L126 29.816C125.444 31.4244 124.577 32.8436 123.399 34.0736C122.221 35.3036 120.83 36.2654 119.227 36.9593C117.623 37.6531 115.889 38 114.024 38ZM109.165 21.8212H119.129C119.129 19.3297 118.703 17.3113 117.852 15.766C117.034 14.2207 115.873 13.448 114.367 13.448C112.928 13.448 111.733 14.2049 110.784 15.7187C109.835 17.2325 109.296 19.2667 109.165 21.8212ZM111.521 9.94731L111.177 9.47424L117.901 0.3441H118.147L121.337 3.08787V3.32441L111.521 9.94731ZM80.2872 37.5603V37.0872H80.3363C81.5143 37.0872 82.4632 36.7403 83.1831 36.0465C83.903 35.3527 84.2629 34.4381 84.2629 33.3027V17.7862C84.2629 16.5878 84.0011 15.6574 83.4776 14.9951C82.9867 14.3329 81.9233 14.0017 80.2872 14.0017V13.5286H85.1464C86.8806 13.5286 88.1895 13.371 89.073 13.0556C89.9565 12.7087 90.5782 12.2671 90.9381 11.731H91.1836L91.2326 19.4893C91.658 18.5431 92.1979 17.5497 92.8524 16.5089C93.5395 15.4682 94.3903 14.6009 95.4046 13.9071C96.4517 13.1817 97.6952 12.8191 99.1349 12.8191C99.6257 12.8191 100.149 12.8664 100.706 12.961C101.262 13.0556 101.851 13.2291 102.473 13.4814L100.558 19.0162C99.3804 18.3855 98.3496 17.9439 97.4661 17.6916C96.6153 17.4393 95.8627 17.3132 95.2083 17.3132C94.0958 17.3132 93.2614 17.6443 92.7051 18.3066C92.1816 18.9689 91.7234 19.7573 91.3308 20.6719V33.3027C91.3308 34.4381 91.6907 35.3527 92.4106 36.0465C93.1305 36.7403 94.0794 37.0873 95.2574 37.0873H95.3064V37.5603L80.2872 37.5603ZM6.62619 37.9397C4.63016 37.9397 3.02679 37.4194 1.81608 36.3786C0.605363 35.3379 0 33.966 0 32.263C0 31.5376 0.130894 30.8596 0.392671 30.2288C0.654449 29.5665 1.14528 28.92 1.86517 28.2892C2.61777 27.6585 3.6485 27.012 4.95737 26.3497C6.26625 25.6558 8.00051 24.9305 10.1601 24.1736L14.7248 22.5652V19.0172C14.7248 17.2195 14.4303 15.8003 13.8413 14.7596C13.2524 13.6873 12.4343 13.1512 11.3872 13.1512C10.1438 13.1827 9.08033 13.9712 8.19684 15.5165C7.34608 17.0618 6.77344 19.2064 6.47895 21.9502L1.178 19.0172C1.73426 17.7241 2.58503 16.5888 3.7303 15.6111C4.87557 14.6335 6.18445 13.8765 7.65692 13.3404C9.16213 12.8043 10.7328 12.5362 12.3689 12.5362C15.1502 12.5362 17.408 13.2931 19.1423 14.8069C20.9093 16.2892 21.7928 18.3234 21.7928 20.9094V32.3103C21.7928 34.1395 22.4308 35.054 23.707 35.054C24.4596 35.054 25.1958 34.6598 25.9157 33.8714L26.3084 34.2025C25.4576 35.3064 24.4269 36.2052 23.2162 36.899C22.0055 37.5928 20.8275 37.9397 19.6822 37.9397C18.4388 37.9397 17.359 37.5298 16.4428 36.7098C15.5593 35.8898 15.003 34.8018 14.7739 33.4456C13.1706 35.0225 11.7635 36.1737 10.5528 36.899C9.37483 37.5928 8.06595 37.9397 6.62619 37.9397ZM10.3074 35.0068C11.0273 35.0068 11.7144 34.8333 12.3689 34.4864C13.056 34.1395 13.825 33.5718 14.6758 32.7833L14.7248 23.1801L12.7615 23.8897C11.0927 24.489 9.81651 25.1039 8.93301 25.7347C8.04952 26.3339 7.42782 27.012 7.06788 27.7689C6.74066 28.5258 6.57704 29.393 6.57704 30.3707C6.57704 31.7268 6.92062 32.8464 7.60778 33.7295C8.32767 34.581 9.22759 35.0068 10.3074 35.0068ZM27.4227 37.9397V6.05522C27.4227 4.91986 27.0464 4.00528 26.2938 3.31145C25.5739 2.61762 24.625 2.27071 23.447 2.27071V1.79765H28.4534C30.384 1.79765 31.7092 1.62419 32.4291 1.27728C33.149 0.930361 33.6725 0.504602 33.9998 0H34.4906V17.2195C35.2432 15.8003 36.2903 14.665 37.6319 13.8135C39.0062 12.962 40.5114 12.5362 42.1475 12.5362C44.0781 12.5362 45.796 13.0881 47.3012 14.1919C48.8064 15.2957 49.9844 16.7938 50.8352 18.686C51.7187 20.5783 52.1604 22.7386 52.1604 25.167C52.1604 27.69 51.6696 29.9134 50.6879 31.8372C49.739 33.761 48.3974 35.259 46.6631 36.3313C44.9289 37.4036 42.9001 37.9397 40.5769 37.9397C36.683 37.9397 34.0652 36.3786 32.7236 33.2564L27.9135 37.9397H27.4227ZM39.1535 37.1355C40.8877 37.1355 42.1966 36.0948 43.0801 34.0133C43.9636 31.9318 44.4053 28.8727 44.4053 24.8359C44.4053 21.3037 44.0617 18.686 43.3746 16.983C42.6874 15.28 41.6076 14.4285 40.1351 14.4285C38.8262 14.4285 37.6646 14.8857 36.6502 15.8003C35.6686 16.7149 34.9487 17.7399 34.4906 18.8753V30.7492C34.6215 32.7045 35.0959 34.2656 35.914 35.4325C36.732 36.5679 37.8119 37.1355 39.1535 37.1355Z" fill="#211F54"/>
</svg>
