<svg width="150" height="191" viewBox="0 0 150 191" fill="none" xmlns="http://www.w3.org/2000/svg">
<g id="Logo &#39;Mission&#39;">
<path id="path5640-9-0-4" d="M75.0196 0.0165086C70.9389 0.143476 66.0408 0.99548 59.1664 2.62156C55.9634 3.37913 45.7364 5.65067 42.0738 6.41966C39.5807 6.94326 34.1963 7.76128 31.5748 8.01778C30.3691 8.13681 29.346 8.4291 29.2959 8.67457C29.1034 9.62034 43.0541 28.8822 45.0498 30.4234C47.7398 32.5008 55.4364 35.4824 61.0913 36.6405C66.8582 37.8205 75.9252 37.7413 82.1332 36.4541C84.8699 35.8867 87.3919 35.2809 87.7424 35.1079C88.9642 34.5036 95.2971 32.6634 95.8072 32.7655C96.0893 32.8223 96.4662 33.5098 96.648 34.2869C96.9943 35.7639 96.7979 36.2508 93.3956 42.7697C93.2459 43.0426 93.1241 43.3336 92.9864 43.6125C90.7427 43.4431 88.5541 43.8073 86.9461 45.3747C84.0354 48.2101 84.4548 53.0584 84.1914 56.78C83.6647 64.2045 82.9574 71.739 81.9786 79.1199C80.7327 88.497 79.8104 98.3276 79.8104 107.786C84.8325 107.514 89.4204 102.149 93.0642 99.0408C101.91 91.4943 111.005 84.1769 120.069 76.887C123.94 73.7737 129.921 70.3203 128.676 64.5514C127.953 61.1984 124.621 58.7824 122.038 56.78C115.964 52.0711 109.179 48.5961 101.981 45.9986C101.99 45.5152 102.048 44.9789 102.173 44.291C103.518 37.7099 112.98 26.6813 123.569 19.3461C129.236 15.4209 130.598 13.9636 130.285 12.122C130.092 10.9244 126.871 10.6021 123.448 11.4434C120.168 12.2494 110.901 18.6879 105.636 23.8119C103.187 26.1955 100.91 28.105 100.58 28.0478C100.25 27.991 99.4495 24.4589 98.7992 20.1999C97.6789 12.8807 97.4718 12.2353 94.9271 8.4991C91.9415 4.11748 90.0929 2.86082 84.1294 1.14366C83.3246 0.91155 82.5324 0.715442 81.7288 0.552766C79.62 0.127822 77.468 -0.059275 75.0196 0.0165086Z" fill="#1D1840"/>
<path id="path61261-7-7-9" d="M78.9659 125.845C77.2061 126.084 77.3967 128.903 77.3517 130.132C77.1806 134.595 76.6861 139.31 76.0925 143.734C74.7481 153.738 74.6667 163.876 73.2226 173.853C72.6531 177.788 71.1997 184.39 73.5008 187.919C75.862 191.537 80.8924 191.135 84.721 190.773C93.9903 189.896 102.975 186.872 111.235 182.715C114.78 180.932 119.158 178.412 118.955 173.853C118.805 170.49 115.719 167.488 113.614 165.109C109.27 160.199 105.186 155.063 100.964 150.049C95.6566 143.747 90.4571 137.344 85.0787 131.103C83.7981 129.618 81.304 125.528 78.9659 125.845Z" fill="#1D1840"/>
<path id="path61260-0-5-9" d="M69.4913 125.169C65.5206 126.279 61.343 131.234 58.2077 133.816L33.1664 154.459C29.5736 157.42 23.567 160.674 22.6435 165.593C21.8067 170.058 26.0837 173.357 29.2384 175.731C36.1852 180.96 43.9272 185.169 52.3155 187.653C55.178 188.5 58.6555 189.919 61.6446 189.005C67.4704 187.225 66.6295 181.469 67.254 176.766C68.9004 164.362 69.6877 151.812 70.8901 139.361C71.1187 136.984 73.4984 124.048 69.4913 125.169Z" fill="#1D1840"/>
<path id="path61259-2-6-6" d="M84.2285 120.416C84.5587 124.913 89.1957 128.698 91.9201 132.075C99.4662 141.428 107.343 150.69 115.226 159.764C118.212 163.203 122.01 169.751 127.437 168.735C131.312 168.01 133.622 164.632 135.835 161.708C140.99 154.897 145.006 147.502 147.555 139.361C148.762 135.507 150.336 130.578 146.972 127.327C144.215 124.663 138.892 124.942 135.293 124.769C127.817 124.41 120.129 123.532 112.707 122.565C103.421 121.355 93.5961 120.416 84.2285 120.416Z" fill="#1D1840"/>
<path id="path61258-4-7-1" d="M4.68696 113.446C-0.853336 115.168 -0.129689 120.8 0.268004 125.274C1.10349 134.663 4.32603 143.695 8.72457 151.992C10.7904 155.887 13.9052 159.974 18.9262 158.478C23.4917 157.117 27.6273 152.332 31.2013 149.364C39.3625 142.587 47.5696 135.875 55.7514 129.121C57.5348 127.649 66.7929 121.831 65.4851 119.208C64.3007 116.832 53.857 117.234 51.3323 117.015C40.2053 116.051 29.0885 114.866 17.9441 114.058C13.8215 113.759 8.74075 112.187 4.68696 113.446Z" fill="#1D1840"/>
<path id="path61257-3-5-0" d="M130.384 75.5792C126.372 76.9212 122.84 81.1837 119.582 83.7637C111.115 90.4689 102.885 97.4841 94.541 104.345C92.595 105.945 83.4583 111.591 84.3999 114.434C85.2929 117.127 96.0227 116.587 98.4692 116.877C109.918 118.231 121.815 119.64 133.33 119.937C137.244 120.039 141.839 121.793 145.605 120.276C150.67 118.237 150.311 112.736 149.573 108.271C148.062 99.1394 145.834 90.2258 141.255 82.0386C138.928 77.8802 135.855 73.7494 130.384 75.5792Z" fill="#1D1840"/>
<path id="path61256-8-2-49" d="M23.3465 65.352C20.1547 66.2937 18.0205 69.403 16.0275 71.8374C10.5164 78.5697 6.73312 86.4788 4.03469 94.6693C2.73801 98.6055 1.00028 103.283 4.36483 106.705C7.48047 109.874 15.2034 109.524 19.4189 109.729C30.3531 110.259 41.4312 111.571 52.3162 112.724C55.8726 113.101 62.6468 114.935 65.9913 113.697C70.0788 112.183 60.734 103.154 59.3113 101.47C51.2693 91.9556 43.2711 82.4014 35.3204 72.8089C32.4203 69.3097 28.7182 63.7673 23.3465 65.352Z" fill="#1D1840"/>
<path id="path61254-0-1-6" d="M68.5189 41.924C58.7449 43.1967 49.8536 45.3609 41.0224 49.851C37.3543 51.7159 32.5289 53.9118 32.7464 58.7203C32.8961 62.0417 35.4625 64.6071 37.5216 66.9787C41.4097 71.4571 45.1795 76.0449 48.9999 80.5806C54.7108 87.3611 60.2365 94.2999 66.0637 100.984C67.339 102.448 70.117 107.063 72.3934 106.795C74.1125 106.594 73.879 104.125 74.0032 102.927C74.4377 98.7192 74.7505 94.4919 75.2532 90.2964C76.4309 80.4545 76.9338 70.526 77.9314 60.6634C78.3805 56.2216 79.9309 50.467 78.5088 46.097C77.1472 41.9077 72.2597 41.4368 68.5189 41.924Z" fill="#1D1840"/>
</g>
</svg>
